<svg xmlns="http://www.w3.org/2000/svg" viewBox="0 0 24 24.12"><defs><style>.cls-1{isolation:isolate;}.cls-2{fill:#e8474f;}.cls-3{fill:#c1272d;}</style></defs><g id="Layer_2" data-name="Layer 2"><g id="Layer_2-2" data-name="Layer 2"><g class="cls-1"><path class="cls-2" d="M13.82,8.24V8.4a3.45,3.45,0,0,0-2.29-.6,10.48,10.48,0,0,0-2,.17V7.81a10.48,10.48,0,0,1,2-.17A3.45,3.45,0,0,1,13.82,8.24Z"/><path class="cls-2" d="M14.52,9.72v.16a1.74,1.74,0,0,0-.7-1.48V8.24A1.76,1.76,0,0,1,14.52,9.72Z"/><path class="cls-3" d="M13.43,9.83V10c0-1-.75-1.37-1.85-1.37a4.35,4.35,0,0,0-.95.08V8.54a4.56,4.56,0,0,1,.95-.07C12.68,8.47,13.43,8.85,13.43,9.83Z"/><path class="cls-2" d="M13.43,10c0,.81-.68,1.4-1.82,1.4v-.16c1.14,0,1.82-.59,1.82-1.4Z"/><rect class="cls-2" x="10.63" y="11.23" width="0.98" height="0.16"/><path class="cls-2" d="M13.43,9.83c0,.81-.68,1.4-1.82,1.4h-1V8.54a4.56,4.56,0,0,1,.95-.07C12.68,8.47,13.43,8.85,13.43,9.83Z"/><path class="cls-3" d="M14.52,9.72v.16a2,2,0,0,1-1.42,1.83v-.15A2,2,0,0,0,14.52,9.72Z"/><path class="cls-3" d="M23,12v.16a11,11,0,0,0-22,0V12a11,11,0,0,1,22,0Z"/><rect class="cls-3" x="10.63" y="12.05" width="0.9" height="0.16"/><path class="cls-3" d="M13.69,13.66v.16c0-1.14-1-1.61-2.16-1.61v-.16C12.71,12.05,13.69,12.52,13.69,13.66Z"/><path class="cls-2" d="M14.83,13.68v.16a2.16,2.16,0,0,0-1.73-2.1v-.16A2.16,2.16,0,0,1,14.83,13.68Z"/><path class="cls-2" d="M11.53,12.05c1.18,0,2.16.47,2.16,1.61s-1,1.63-2.15,1.63a5.45,5.45,0,0,1-.91,0V12.05Z"/><path class="cls-2" d="M11.54,15.45a5.45,5.45,0,0,1-.91,0v-.16a5.45,5.45,0,0,0,.91,0c1.11,0,2.15-.41,2.15-1.63v.16C13.69,15,12.65,15.45,11.54,15.45Z"/><path class="cls-3" d="M14.83,13.68v.16a2.27,2.27,0,0,1-.71,1.67v-.16A2.24,2.24,0,0,0,14.83,13.68Z"/><path class="cls-3" d="M14.12,15.35v.16a4.23,4.23,0,0,1-2.9.78,12.5,12.5,0,0,1-1.67-.1V16a12.5,12.5,0,0,0,1.67.1A4.23,4.23,0,0,0,14.12,15.35Z"/><path class="cls-3" d="M13.1,11.58a2.16,2.16,0,0,1,1.73,2.1,2.24,2.24,0,0,1-.71,1.67,4.23,4.23,0,0,1-2.9.78A12.5,12.5,0,0,1,9.55,16V7.81a10.48,10.48,0,0,1,2-.17,3.45,3.45,0,0,1,2.29.6,1.76,1.76,0,0,1,.7,1.48,2,2,0,0,1-1.42,1.84Zm-1.56,3.71c1.11,0,2.15-.41,2.15-1.63s-1-1.61-2.16-1.61h-.9v3.19a5.45,5.45,0,0,0,.91,0m-.91-6.75v2.69h1c1.14,0,1.82-.59,1.82-1.4,0-1-.75-1.36-1.85-1.36a4.56,4.56,0,0,0-.95.07"/><path class="cls-2" d="M12,23.12a11,11,0,0,1-11-11V12a11,11,0,0,0,22,0v.16A11,11,0,0,1,12,23.12Z"/><path class="cls-2" d="M12,1A11,11,0,1,1,1,12,11,11,0,0,1,12,1Zm2.11,14.35a2.24,2.24,0,0,0,.71-1.67,2.16,2.16,0,0,0-1.73-2.1v0a2,2,0,0,0,1.42-1.84,1.76,1.76,0,0,0-.7-1.48,3.45,3.45,0,0,0-2.29-.6,10.48,10.48,0,0,0-2,.17V16a12.5,12.5,0,0,0,1.67.1,4.23,4.23,0,0,0,2.9-.78"/><path class="cls-3" d="M12,0A12,12,0,1,1,0,12,12,12,0,0,1,12,0Zm0,23A11,11,0,1,0,1,12,11,11,0,0,0,12,23"/><path class="cls-3" d="M24,12v.16a12,12,0,0,1-24,0V12a12,12,0,0,0,24,0Z"/></g></g></g></svg>