<svg xmlns="http://www.w3.org/2000/svg" xmlns:xlink="http://www.w3.org/1999/xlink" viewBox="0 0 53.01 51.96"><defs><style>.cls-1{fill:none;}.cls-2{isolation:isolate;}.cls-3{fill:#1a1a1a;}.cls-4{clip-path:url(#clip-path);}.cls-5{fill:#232421;}.cls-6{fill:#252522;}.cls-7{fill:#242421;}.cls-8{fill:#222320;}.cls-9{clip-path:url(#clip-path-2);}.cls-10{fill:#262723;}.cls-11{fill:#272825;}.cls-12{clip-path:url(#clip-path-3);}.cls-13{fill:#2d2d2d;}.cls-14{clip-path:url(#clip-path-4);}.cls-15{fill:#1b1b1b;}.cls-16{clip-path:url(#clip-path-5);}.cls-17{fill:#1e1e1e;}.cls-18{fill:#1d1d1d;}.cls-19{fill:#1c1c1c;}.cls-20{clip-path:url(#clip-path-6);}.cls-21{clip-path:url(#clip-path-7);}.cls-22{clip-path:url(#clip-path-8);}.cls-23{clip-path:url(#clip-path-9);}.cls-24{clip-path:url(#clip-path-10);}.cls-25{clip-path:url(#clip-path-11);}.cls-26{clip-path:url(#clip-path-12);}.cls-27{clip-path:url(#clip-path-13);}.cls-28{clip-path:url(#clip-path-14);}.cls-29{clip-path:url(#clip-path-15);}.cls-30{clip-path:url(#clip-path-16);}.cls-31{clip-path:url(#clip-path-17);}.cls-32{clip-path:url(#clip-path-18);}.cls-33{clip-path:url(#clip-path-19);}.cls-34{fill:#232320;}.cls-35{clip-path:url(#clip-path-20);}.cls-36{clip-path:url(#clip-path-21);}.cls-37{clip-path:url(#clip-path-22);}.cls-38{clip-path:url(#clip-path-23);}.cls-39{clip-path:url(#clip-path-24);}.cls-40{fill:#3c3d38;}</style><clipPath id="clip-path" transform="translate(0)"><path class="cls-1" d="M26.55,4.47v.44a.24.24,0,0,0-.4,0V4.47a.24.24,0,0,1,.4,0Z"/></clipPath><clipPath id="clip-path-2" transform="translate(0)"><path class="cls-1" d="M21.69,12.43V12a.22.22,0,0,1,0-.13v.44A.2.2,0,0,0,21.69,12.43Z"/></clipPath><clipPath id="clip-path-3" transform="translate(0)"><path class="cls-1" d="M31.32,12v.44a.19.19,0,0,0,0-.1v-.44A.22.22,0,0,1,31.32,12Z"/></clipPath><clipPath id="clip-path-4" transform="translate(0)"><path class="cls-1" d="M21.69,12.43V12a.24.24,0,0,0,.24.24v.44A.24.24,0,0,1,21.69,12.43Z"/></clipPath><clipPath id="clip-path-5" transform="translate(0)"><path class="cls-1" d="M31.32,12v.44a.19.19,0,0,1-.19.19v-.44A.19.19,0,0,0,31.32,12Z"/></clipPath><clipPath id="clip-path-6" transform="translate(0)"><path class="cls-1" d="M11.82,20.9v.43a.19.19,0,0,0-.1,0v-.43A.19.19,0,0,1,11.82,20.9Z"/></clipPath><clipPath id="clip-path-7" transform="translate(0)"><path class="cls-1" d="M12,21.09v.44a.19.19,0,0,0-.19-.2V20.9A.18.18,0,0,1,12,21.09Z"/></clipPath><clipPath id="clip-path-8" transform="translate(0)"><path class="cls-1" d="M41.54,20.94v.43a.31.31,0,0,0-.13,0,.24.24,0,0,0-.24.25v-.44a.24.24,0,0,1,.24-.25A.22.22,0,0,1,41.54,20.94Z"/></clipPath><clipPath id="clip-path-9" transform="translate(0)"><path class="cls-1" d="M49,25.61v.44a.22.22,0,0,0-.12-.21V25.4A.25.25,0,0,1,49,25.61Z"/></clipPath><clipPath id="clip-path-10" transform="translate(0)"><path class="cls-1" d="M21.5,26v-.23a5,5,0,0,1,5-5v.44a5,5,0,0,0-5,5.05Z"/></clipPath><clipPath id="clip-path-11" transform="translate(0)"><path class="cls-1" d="M21.5,26.19v-.43h0v.44Z"/></clipPath><clipPath id="clip-path-12" transform="translate(0)"><path class="cls-1" d="M31.5,26.2a5,5,0,0,0-5-5.05v-.44a5,5,0,0,1,5,5.05Z"/></clipPath><clipPath id="clip-path-13" transform="translate(0)"><path class="cls-1" d="M49,25.61v.44a.26.26,0,0,1-.11.2v-.44A.24.24,0,0,0,49,25.61Z"/></clipPath><clipPath id="clip-path-14" transform="translate(0)"><path class="cls-1" d="M4.21,26.35v-.44a.24.24,0,0,1,.11-.2v.44A.24.24,0,0,0,4.21,26.35Z"/></clipPath><clipPath id="clip-path-15" transform="translate(0)"><path class="cls-1" d="M4.21,26.35v-.44a.25.25,0,0,0,.12.21v.44A.25.25,0,0,1,4.21,26.35Z"/></clipPath><clipPath id="clip-path-16" transform="translate(0)"><path class="cls-1" d="M41.46,30.6V31a.18.18,0,0,1-.1,0,.19.19,0,0,1-.19-.19v-.44a.19.19,0,0,0,.29.17Z"/></clipPath><clipPath id="clip-path-17" transform="translate(0)"><path class="cls-1" d="M12,30.38v.44a.25.25,0,0,1-.25.24v-.43A.25.25,0,0,0,12,30.38Z"/></clipPath><clipPath id="clip-path-18" transform="translate(0)"><path class="cls-1" d="M11.76,30.63v.43a.27.27,0,0,1-.12,0v-.44A.19.19,0,0,0,11.76,30.63Z"/></clipPath><clipPath id="clip-path-19" transform="translate(0)"><path class="cls-1" d="M31.5,25.76v.44a5,5,0,1,1-10,0v-.44a5,5,0,1,0,10,0Z"/></clipPath><clipPath id="clip-path-20" transform="translate(0)"><path class="cls-1" d="M21.69,40.32v-.44a.19.19,0,0,1,.19-.19v.44A.19.19,0,0,0,21.69,40.32Z"/></clipPath><clipPath id="clip-path-21" transform="translate(0)"><path class="cls-1" d="M31.32,39.94v.44a.25.25,0,0,0-.25-.25v-.44A.25.25,0,0,1,31.32,39.94Z"/></clipPath><clipPath id="clip-path-22" transform="translate(0)"><path class="cls-1" d="M21.69,40.32v-.44a.19.19,0,0,0,0,.1v.44A.19.19,0,0,1,21.69,40.32Z"/></clipPath><clipPath id="clip-path-23" transform="translate(0)"><path class="cls-1" d="M31.32,39.94v.44a.27.27,0,0,1,0,.12v-.44A.27.27,0,0,0,31.32,39.94Z"/></clipPath><clipPath id="clip-path-24" transform="translate(0)"><path class="cls-1" d="M26.86,47.45v.44a.24.24,0,0,1-.2.11.26.26,0,0,1-.21-.11v-.44a.26.26,0,0,0,.21.11A.24.24,0,0,0,26.86,47.45Z"/></clipPath></defs><g id="Layer_2" data-name="Layer 2"><g id="Layer_2-2" data-name="Layer 2"><g class="cls-2"><rect class="cls-3" x="21.18" y="1" width="11.11" height="0.44"/><polygon class="cls-3" points="34 2.73 34 3.17 32.29 1.44 32.29 1 34 2.73"/><polygon class="cls-3" points="21.18 1 21.18 1.44 19.01 3.2 19.01 2.76 21.18 1"/><g class="cls-2"><g class="cls-4"><g class="cls-2"><path class="cls-5" d="M26.55,4.47v.44a.24.24,0,0,0-.4,0V4.47a.24.24,0,0,1,.4,0" transform="translate(0)"/><polyline class="cls-6" points="26.15 4.47 26.15 4.91 26.14 4.91 26.14 4.47 26.15 4.47"/></g></g></g><polygon class="cls-7" points="26.14 4.47 26.14 4.91 21.73 12.3 21.73 11.86 26.14 4.47"/><polygon class="cls-8" points="31.28 11.94 31.28 12.38 26.55 4.91 26.55 4.47 31.28 11.94"/><g class="cls-2"><g class="cls-9"><g class="cls-2"><path class="cls-6" d="M21.73,11.86v.44s0,0,0,0v-.44s0,0,0-.05" transform="translate(0)"/><path class="cls-10" d="M21.71,11.91v.44s0,0,0,0V12s0,0,0,0" transform="translate(0)"/><path class="cls-11" d="M21.69,12v0" transform="translate(0)"/></g></g></g><g class="cls-2"><g class="cls-12"><g class="cls-2"><path class="cls-5" d="M31.32,12v.44a.19.19,0,0,0,0-.1v-.44a.22.22,0,0,1,0,.1" transform="translate(0)"/></g></g></g><path class="cls-13" d="M26.35,4.36a.23.23,0,0,1,.2.11l4.74,7.47a.19.19,0,0,1-.16.29h-9.2a.24.24,0,0,1-.2-.37l4.42-7.39A.23.23,0,0,1,26.35,4.36Z" transform="translate(0)"/><rect class="cls-3" x="21.93" y="12.23" width="9.2" height="0.44"/><g class="cls-2"><g class="cls-14"><g class="cls-2"><path class="cls-15" d="M21.93,12.23v.44a.24.24,0,0,1-.24-.24V12a.24.24,0,0,0,.24.24" transform="translate(0)"/></g></g></g><g class="cls-2"><g class="cls-16"><g class="cls-2"><path class="cls-17" d="M31.32,12v.44a0,0,0,0,1,0,0v-.44a0,0,0,0,0,0,0" transform="translate(0)"/><path class="cls-18" d="M31.31,12.07v.44a.06.06,0,0,1,0,0v-.44s0,0,0,0" transform="translate(0)"/><path class="cls-19" d="M31.3,12.11v0" transform="translate(0)"/><path class="cls-15" d="M31.29,12.14v.44a.19.19,0,0,1-.16.09v-.44a.19.19,0,0,0,.16-.09" transform="translate(0)"/></g></g></g><polygon class="cls-3" points="35.19 18.18 35.19 18.62 34 16.21 34 15.77 35.19 18.18"/><rect class="cls-3" x="2.71" y="18.18" width="14" height="0.44"/><polygon class="cls-3" points="19.01 15.86 19.01 16.3 16.71 18.62 16.71 18.18 19.01 15.86"/><rect class="cls-3" x="35.19" y="18.18" width="15.1" height="0.44"/><polygon class="cls-3" points="52 19.9 52 20.34 50.29 18.62 50.29 18.18 52 19.9"/><polygon class="cls-3" points="2.71 18.18 2.71 18.62 1.01 20.34 1.01 19.9 2.71 18.18"/><g class="cls-2"><g class="cls-20"><g class="cls-2"><path class="cls-5" d="M11.82,20.9v.43a.19.19,0,0,0-.1,0v-.43a.19.19,0,0,1,.1,0" transform="translate(0)"/></g></g></g><g class="cls-2"><g class="cls-21"><g class="cls-2"><path class="cls-5" d="M12,21.09v.44a.19.19,0,0,0-.19-.2V20.9a.18.18,0,0,1,.19.19" transform="translate(0)"/></g></g></g><g class="cls-2"><g class="cls-22"><g class="cls-2"><path class="cls-5" d="M41.54,20.94v.43a.31.31,0,0,0-.13,0,.26.26,0,0,0-.21.11V21a.25.25,0,0,1,.21-.12.22.22,0,0,1,.13,0" transform="translate(0)"/><path class="cls-6" d="M41.2,21v.43s0,0,0,.05v-.44s0,0,0,0" transform="translate(0)"/><path class="cls-10" d="M41.18,21.06v.44a.43.43,0,0,0,0,.05v-.44s0,0,0-.05" transform="translate(0)"/><path class="cls-11" d="M41.17,21.11v0" transform="translate(0)"/></g></g></g><polygon class="cls-8" points="48.84 25.4 48.84 25.84 41.53 21.37 41.53 20.93 48.84 25.4"/><g class="cls-2"><g class="cls-23"><g class="cls-2"><path class="cls-5" d="M49,25.61v.44a.22.22,0,0,0-.12-.21V25.4a.25.25,0,0,1,.12.21" transform="translate(0)"/></g></g></g><polygon class="cls-8" points="11.72 20.93 11.72 21.36 4.32 26.15 4.32 25.71 11.72 20.93"/><g class="cls-2"><g class="cls-24"><g class="cls-2"><path class="cls-5" d="M31.5,25.76v.44a5,5,0,0,0-9.24-2.67v-.44a5,5,0,0,1,9.24,2.67" transform="translate(0)"/><path class="cls-6" d="M22.26,23.09v.44a4.44,4.44,0,0,0-.45.93V24a4.69,4.69,0,0,1,.45-.93" transform="translate(0)"/><path class="cls-10" d="M21.81,24v.44a4.59,4.59,0,0,0-.24.9v-.44a4.59,4.59,0,0,1,.24-.9" transform="translate(0)"/><path class="cls-11" d="M21.57,24.92v.44a5.71,5.71,0,0,0-.07.84v-.44a5.83,5.83,0,0,1,.07-.84" transform="translate(0)"/></g></g></g><g class="cls-2"><g class="cls-25"><g class="cls-2"><path class="cls-11" d="M21.57,24.92v.44a5.71,5.71,0,0,0-.07.84v-.44a5.83,5.83,0,0,1,.07-.84" transform="translate(0)"/></g></g></g><g class="cls-2"><g class="cls-26"><g class="cls-2"><path class="cls-5" d="M31.5,25.76v.44a5,5,0,0,0-9.24-2.67v-.44a5,5,0,0,1,9.24,2.67" transform="translate(0)"/></g></g></g><g class="cls-2"><g class="cls-27"><g class="cls-2"><path class="cls-17" d="M49,25.61v0" transform="translate(0)"/><path class="cls-18" d="M49,25.65v.44s0,0,0,0v-.44s0,0,0,0" transform="translate(0)"/><path class="cls-19" d="M48.94,25.69v.44s0,0,0,.05v-.44a.08.08,0,0,0,0,0" transform="translate(0)"/><path class="cls-15" d="M48.92,25.74v.44a.16.16,0,0,1-.07.07v-.44a.16.16,0,0,0,.07-.07" transform="translate(0)"/></g></g></g><g class="cls-2"><g class="cls-28"><g class="cls-2"><path class="cls-5" d="M4.32,25.71v.44l-.07.07v-.43a.27.27,0,0,1,.07-.08" transform="translate(0)"/><path class="cls-6" d="M4.25,25.79v.43s0,0,0,.05v-.44a.05.05,0,0,1,0,0" transform="translate(0)"/><path class="cls-10" d="M4.23,25.83v.44a.06.06,0,0,0,0,0v-.44a.06.06,0,0,1,0,0" transform="translate(0)"/><path class="cls-11" d="M4.22,25.87v.44a.06.06,0,0,0,0,0v-.44a.08.08,0,0,1,0,0" transform="translate(0)"/></g></g></g><g class="cls-2"><g class="cls-29"><g class="cls-2"><path class="cls-15" d="M4.33,26.12v.44a.25.25,0,0,1-.12-.21v-.44a.25.25,0,0,0,.12.21" transform="translate(0)"/></g></g></g><polygon class="cls-3" points="11.64 30.59 11.64 31.03 4.33 26.56 4.33 26.12 11.64 30.59"/><polygon class="cls-3" points="48.85 25.81 48.85 26.25 41.45 31.04 41.45 30.6 48.85 25.81"/><path class="cls-13" d="M41.41,20.9a.22.22,0,0,1,.13,0l7.3,4.46a.24.24,0,0,1,0,.41L41.46,30.6a.19.19,0,0,1-.29-.17V21.15A.24.24,0,0,1,41.41,20.9Z" transform="translate(0)"/><g class="cls-2"><g class="cls-30"><g class="cls-2"><path class="cls-15" d="M41.46,30.6V31a.18.18,0,0,1-.1,0,.19.19,0,0,1-.19-.19v-.44a.19.19,0,0,0,.29.17" transform="translate(0)"/></g></g></g><g class="cls-2"><g class="cls-31"><g class="cls-2"><path class="cls-17" d="M12,30.38v.44a.08.08,0,0,1,0,0v-.44a.08.08,0,0,0,0,0" transform="translate(0)"/><path class="cls-18" d="M12,30.42v.44a.06.06,0,0,1,0,0v-.44a.06.06,0,0,0,0,0" transform="translate(0)"/><path class="cls-19" d="M12,30.46v.44s0,0,0,.05v-.44s0,0,0-.05" transform="translate(0)"/><path class="cls-15" d="M12,30.51V31a.25.25,0,0,1-.21.11v-.43a.26.26,0,0,0,.21-.12" transform="translate(0)"/></g></g></g><g class="cls-2"><g class="cls-32"><g class="cls-2"><path class="cls-15" d="M11.76,30.63v.43a.27.27,0,0,1-.12,0v-.44a.19.19,0,0,0,.12,0" transform="translate(0)"/></g></g></g><path class="cls-13" d="M11.82,20.9a.18.18,0,0,1,.19.19v9.29a.25.25,0,0,1-.25.25.19.19,0,0,1-.12,0L4.33,26.12a.25.25,0,0,1,0-.41l7.4-4.78A.19.19,0,0,1,11.82,20.9Z" transform="translate(0)"/><path class="cls-13" d="M26.51,20.71a5.06,5.06,0,1,1-5,5.05A5,5,0,0,1,26.51,20.71Z" transform="translate(0)"/><g class="cls-2"><g class="cls-33"><g class="cls-2"><path class="cls-17" d="M31.5,25.76v.44a4.68,4.68,0,0,1-.07.84V26.6a4.61,4.61,0,0,0,.07-.84" transform="translate(0)"/><path class="cls-18" d="M31.43,26.6V27a5.4,5.4,0,0,1-.23.9v-.43a5.51,5.51,0,0,0,.23-.91" transform="translate(0)"/><path class="cls-19" d="M31.2,27.51v.43a4.83,4.83,0,0,1-.46.94v-.44a5,5,0,0,0,.46-.93" transform="translate(0)"/><path class="cls-15" d="M30.74,28.44v.44a5,5,0,0,1-4.23,2.37,5,5,0,0,1-5-5.05v-.44a5,5,0,0,0,5,5.06,5,5,0,0,0,4.23-2.38" transform="translate(0)"/></g></g></g><rect class="cls-8" x="36.29" y="33.34" width="14" height="0.44"/><polygon class="cls-8" points="2.71 33.34 2.71 33.78 1.01 32.06 1.01 31.62 2.71 33.34"/><polygon class="cls-34" points="52 31.62 52 32.06 50.29 33.78 50.29 33.34 52 31.62"/><rect class="cls-8" x="2.71" y="33.34" width="14" height="0.44"/><rect class="cls-3" x="36.71" y="34.35" width="14" height="0.44"/><polygon class="cls-3" points="53.01 32.03 53.01 32.47 50.72 34.79 50.72 34.35 53.01 32.03"/><rect class="cls-3" x="2.29" y="34.35" width="13.99" height="0.44"/><polygon class="cls-3" points="2.29 34.35 2.29 34.79 0 32.47 0 32.03 2.29 34.35"/><polygon class="cls-34" points="36.29 33.34 36.29 33.78 34 36.1 34 35.66 36.29 33.34"/><polygon class="cls-8" points="19.01 35.66 19.01 36.1 16.71 33.78 16.71 33.34 19.01 35.66"/><polygon class="cls-3" points="36.71 34.35 36.71 34.79 35.01 36.51 35.01 36.07 36.71 34.35"/><polygon class="cls-3" points="18 36.07 18 36.51 16.29 34.79 16.29 34.35 18 36.07"/><rect class="cls-8" x="21.88" y="39.69" width="9.19" height="0.44"/><g class="cls-2"><g class="cls-35"><g class="cls-2"><path class="cls-5" d="M21.88,39.69v.44a.19.19,0,0,0-.16.09v-.44a.19.19,0,0,1,.16-.09" transform="translate(0)"/><path class="cls-6" d="M21.72,39.78v.44l0,0v-.43a.05.05,0,0,1,0,0" transform="translate(0)"/><path class="cls-10" d="M21.7,39.82v.43a.06.06,0,0,0,0,0v-.44a0,0,0,0,1,0,0" transform="translate(0)"/><path class="cls-11" d="M21.69,39.85v0" transform="translate(0)"/></g></g></g><g class="cls-2"><g class="cls-36"><g class="cls-2"><path class="cls-5" d="M31.32,39.94v.44a.25.25,0,0,0-.25-.25v-.44a.25.25,0,0,1,.25.25" transform="translate(0)"/></g></g></g><g class="cls-2"><g class="cls-37"><g class="cls-2"><path class="cls-15" d="M21.72,40v.44a.19.19,0,0,1,0-.1v-.44a.19.19,0,0,0,0,.1" transform="translate(0)"/></g></g></g><g class="cls-2"><g class="cls-38"><g class="cls-2"><path class="cls-17" d="M31.32,39.94v.44a.06.06,0,0,1,0,0V40a.06.06,0,0,0,0,0" transform="translate(0)"/><path class="cls-18" d="M31.31,40v.44a.06.06,0,0,1,0,0V40a.06.06,0,0,0,0,0" transform="translate(0)"/><path class="cls-19" d="M31.3,40v0s0,0,0,0" transform="translate(0)"/></g></g></g><polygon class="cls-15" points="31.28 40.06 31.28 40.5 26.86 47.89 26.86 47.45 31.28 40.06"/><polygon class="cls-3" points="26.45 47.45 26.45 47.89 21.72 40.42 21.72 39.98 26.45 47.45"/><g class="cls-2"><g class="cls-39"><g class="cls-2"><polyline class="cls-19" points="26.86 47.45 26.86 47.89 26.85 47.89 26.85 47.45 26.86 47.45"/><path class="cls-15" d="M26.85,47.45v.44a.23.23,0,0,1-.19.11.26.26,0,0,1-.21-.11v-.44a.26.26,0,0,0,.21.11.23.23,0,0,0,.19-.11" transform="translate(0)"/></g></g></g><path class="cls-13" d="M31.07,39.69a.25.25,0,0,1,.22.37l-4.43,7.39a.24.24,0,0,1-.2.11.26.26,0,0,1-.21-.11L21.72,40a.19.19,0,0,1,.16-.29Z" transform="translate(0)"/><polygon class="cls-8" points="20.71 50.52 20.71 50.96 19.01 49.24 19.01 48.8 20.71 50.52"/><rect class="cls-8" x="20.71" y="50.52" width="11.58" height="0.44"/><polygon class="cls-34" points="34 48.8 34 49.24 32.29 50.96 32.29 50.52 34 48.8"/><path class="cls-40" d="M50.29,18.18,52,19.9V31.62l-1.71,1.72h-14L34,35.66V48.8l-1.71,1.72H20.71L19,48.8V35.66l-2.3-2.32h-14L1,31.62V19.9l1.7-1.72h14L19,15.86V2.76L21.18,1H32.29L34,2.73v13l1.19,2.41ZM26.51,30.82a5.06,5.06,0,1,0-5-5.06,5,5,0,0,0,5,5.06m4.78,9.24a.26.26,0,0,0-.22-.37H21.88a.19.19,0,0,0-.16.29l4.73,7.47a.26.26,0,0,0,.21.11.24.24,0,0,0,.2-.11l4.43-7.39m-9.56-28.2a.24.24,0,0,0,.2.37h9.2a.19.19,0,0,0,.16-.29L26.55,4.47a.24.24,0,0,0-.4,0l-4.42,7.39M12,30.38V21.09a.18.18,0,0,0-.19-.19.19.19,0,0,0-.1,0l-7.4,4.78a.25.25,0,0,0,0,.41l7.31,4.47a.28.28,0,0,0,.12,0,.25.25,0,0,0,.25-.25m36.84-4.57a.24.24,0,0,0,0-.41l-7.3-4.46a.22.22,0,0,0-.13,0,.24.24,0,0,0-.24.25v9.28a.19.19,0,0,0,.29.17l7.39-4.79" transform="translate(0)"/><polygon class="cls-3" points="35.01 49.2 35.01 49.64 32.72 51.97 32.72 51.53 35.01 49.2"/><path class="cls-13" d="M50.72,17.18,53,19.49V32l-2.29,2.32h-14L35,36.07V49.2l-2.29,2.33H20.3L18,49.2V36.07l-1.71-1.72H2.3L0,32V19.49l2.3-2.31h14L18,15.45V2.28L20.83,0H32.72L35,2.31V15.54l.8,1.64ZM52,31.62V19.9l-1.71-1.72H35.19L34,15.77v-13L32.29,1H21.18L19,2.76v13.1l-2.3,2.32h-14L1,19.9V31.62l1.7,1.72h14L19,35.66V48.8l1.7,1.72H32.29L34,48.8V35.66l2.29-2.32h14L52,31.62" transform="translate(0)"/><polygon class="cls-3" points="20.3 51.53 20.3 51.97 18 49.64 18 49.2 20.3 51.53"/><rect class="cls-3" x="20.29" y="51.53" width="12.42" height="0.44"/></g></g></g></svg>