<svg xmlns="http://www.w3.org/2000/svg" xmlns:xlink="http://www.w3.org/1999/xlink" viewBox="0 0 53 49.01"><defs><style>.cls-1{fill:none;}.cls-2{isolation:isolate;}.cls-3{fill:#1b1b1b;}.cls-4{fill:#1a1a1a;}.cls-5{fill:#1e1e1e;}.cls-6{clip-path:url(#clip-path);}.cls-7{fill:#232421;}.cls-8{fill:#252522;}.cls-9{fill:#262723;}.cls-10{fill:#272825;}.cls-11{fill:#292926;}.cls-12{fill:#222320;}.cls-13{clip-path:url(#clip-path-2);}.cls-14{clip-path:url(#clip-path-3);}.cls-15{clip-path:url(#clip-path-4);}.cls-16{fill:#1d1d1d;}.cls-17{fill:#1c1c1c;}.cls-18{clip-path:url(#clip-path-5);}.cls-19{clip-path:url(#clip-path-6);}.cls-20{clip-path:url(#clip-path-7);}.cls-21{clip-path:url(#clip-path-8);}.cls-22{fill:#272824;}.cls-23{clip-path:url(#clip-path-9);}.cls-24{clip-path:url(#clip-path-10);}.cls-25{clip-path:url(#clip-path-11);}.cls-26{clip-path:url(#clip-path-12);}.cls-27{clip-path:url(#clip-path-13);}.cls-28{clip-path:url(#clip-path-14);}.cls-29{clip-path:url(#clip-path-15);}.cls-30{fill:#2f2f2f;}.cls-31{clip-path:url(#clip-path-16);}.cls-32{clip-path:url(#clip-path-17);}.cls-33{fill:#242421;}.cls-34{fill:#282925;}.cls-35{clip-path:url(#clip-path-18);}.cls-36{clip-path:url(#clip-path-19);}.cls-37{clip-path:url(#clip-path-20);}.cls-38{clip-path:url(#clip-path-21);}.cls-39{clip-path:url(#clip-path-22);}.cls-40{fill:#1f1f1f;}.cls-41{clip-path:url(#clip-path-23);}.cls-42{fill:#3f403a;}</style><clipPath id="clip-path" transform="translate(0 -1.36)"><path class="cls-1" d="M26.55,5.43V7.56a.26.26,0,0,0-.2-.11.23.23,0,0,0-.2.11V5.43a.22.22,0,0,1,.2-.1A.25.25,0,0,1,26.55,5.43Z"/></clipPath><clipPath id="clip-path-2" transform="translate(0 -1.36)"><path class="cls-1" d="M21.73,14.28a.19.19,0,0,0,0,.11V12.27a.19.19,0,0,1,0-.12A8.43,8.43,0,0,1,21.73,14.28Z"/></clipPath><clipPath id="clip-path-3" transform="translate(0 -1.36)"><path class="cls-1" d="M31.32,12.32v2.13a.17.17,0,0,0,0-.1V12.23A.14.14,0,0,1,31.32,12.32Z"/></clipPath><clipPath id="clip-path-4" transform="translate(0 -1.36)"><path class="cls-1" d="M31.32,12.32v2.13a.18.18,0,0,1-.2.16V12.49A.18.18,0,0,0,31.32,12.32Z"/></clipPath><clipPath id="clip-path-5" transform="translate(0 -1.36)"><path class="cls-1" d="M21.69,14.39V12.27a.24.24,0,0,0,.25.22v2.12A.23.23,0,0,1,21.69,14.39Z"/></clipPath><clipPath id="clip-path-6" transform="translate(0 -1.36)"><path class="cls-1" d="M12,20.55v2.12a.17.17,0,0,0-.18-.17.19.19,0,0,0-.1,0V20.4a.19.19,0,0,1,.1,0A.17.17,0,0,1,12,20.55Z"/></clipPath><clipPath id="clip-path-7" transform="translate(0 -1.36)"><path class="cls-1" d="M41.54,20.41v2.12a.31.31,0,0,0-.13,0,.24.24,0,0,0-.24.23V20.6a.24.24,0,0,1,.24-.23A.22.22,0,0,1,41.54,20.41Z"/></clipPath><clipPath id="clip-path-8" transform="translate(0 -1.36)"><path class="cls-1" d="M49,24.66v2.12a.21.21,0,0,0-.11-.18V24.47A.21.21,0,0,1,49,24.66Z"/></clipPath><clipPath id="clip-path-9" transform="translate(0 -1.36)"><path class="cls-1" d="M21.5,25.86V24.79a4.83,4.83,0,0,1,5-4.59v2.13a4.82,4.82,0,0,0-5,4.59Z"/></clipPath><clipPath id="clip-path-10" transform="translate(0 -1.36)"><path class="cls-1" d="M21.5,26.92V24.8h0v2.13Z"/></clipPath><clipPath id="clip-path-11" transform="translate(0 -1.36)"><path class="cls-1" d="M31.5,26.92a4.81,4.81,0,0,0-5-4.59V20.2a4.81,4.81,0,0,1,5,4.6Z"/></clipPath><clipPath id="clip-path-12" transform="translate(0 -1.36)"><path class="cls-1" d="M49,24.66v2.12a.21.21,0,0,1-.11.19V24.84A.21.21,0,0,0,49,24.66Z"/></clipPath><clipPath id="clip-path-13" transform="translate(0 -1.36)"><path class="cls-1" d="M4.22,27.06V24.93a.2.2,0,0,1,.1-.18v2.13A.2.2,0,0,0,4.22,27.06Z"/></clipPath><clipPath id="clip-path-14" transform="translate(0 -1.36)"><path class="cls-1" d="M4.22,27.06V24.93a.2.2,0,0,0,.11.19v2.13A.2.2,0,0,1,4.22,27.06Z"/></clipPath><clipPath id="clip-path-15" transform="translate(0 -1.36)"><path class="cls-1" d="M41.45,29.2v2.13l-.09,0a.18.18,0,0,1-.19-.18V29a.18.18,0,0,0,.19.18A.15.15,0,0,0,41.45,29.2Z"/></clipPath><clipPath id="clip-path-16" transform="translate(0 -1.36)"><path class="cls-1" d="M12,29v2.12a.23.23,0,0,1-.24.23.27.27,0,0,1-.12,0V29.19a.27.27,0,0,0,.12,0A.23.23,0,0,0,12,29Z"/></clipPath><clipPath id="clip-path-17" transform="translate(0 -1.36)"><path class="cls-1" d="M31.5,24.8v2.12a4.8,4.8,0,0,1-5,4.6,4.81,4.81,0,0,1-5-4.6V24.8a4.82,4.82,0,0,0,5,4.6A4.81,4.81,0,0,0,31.5,24.8Z"/></clipPath><clipPath id="clip-path-18" transform="translate(0 -1.36)"><path class="cls-1" d="M31.18,39.62l-.11,0V37.47l.11,0v2.13Z"/></clipPath><clipPath id="clip-path-19" transform="translate(0 -1.36)"><path class="cls-1" d="M21.69,39.77V37.64a.18.18,0,0,1,.19-.17V39.6A.18.18,0,0,0,21.69,39.77Z"/></clipPath><clipPath id="clip-path-20" transform="translate(0 -1.36)"><path class="cls-1" d="M31.18,39.62V37.49a.23.23,0,0,1,.13.2v2.13A.23.23,0,0,0,31.18,39.62Z"/></clipPath><clipPath id="clip-path-21" transform="translate(0 -1.36)"><path class="cls-1" d="M21.69,39.77V37.64a.16.16,0,0,0,0,.09v2.13A.16.16,0,0,1,21.69,39.77Z"/></clipPath><clipPath id="clip-path-22" transform="translate(0 -1.36)"><path class="cls-1" d="M31.31,37.69v2.13a.2.2,0,0,1,0,.11V37.81A.27.27,0,0,0,31.31,37.69Z"/></clipPath><clipPath id="clip-path-23" transform="translate(0 -1.36)"><path class="cls-1" d="M26.86,44.53v2.12a.24.24,0,0,1-.2.11.26.26,0,0,1-.21-.11V44.53a.25.25,0,0,0,.21.1A.23.23,0,0,0,26.86,44.53Z"/></clipPath></defs><g id="Layer_2" data-name="Layer 2"><g id="Layer_2-2" data-name="Layer 2"><g class="cls-2"><rect class="cls-3" x="21.18" y="0.91" width="11.11" height="2.13"/><polygon class="cls-4" points="33.99 2.48 33.99 4.61 32.29 3.04 32.29 0.91 33.99 2.48"/><polygon class="cls-5" points="21.18 0.91 21.18 3.04 19.01 4.64 19.01 2.51 21.18 0.91"/><g class="cls-2"><g class="cls-6"><g class="cls-2"><path class="cls-7" d="M26.55,5.43V7.56a.26.26,0,0,0-.2-.11l-.09,0V5.34h.09a.25.25,0,0,1,.2.1" transform="translate(0 -1.36)"/><path class="cls-8" d="M26.26,5.34V7.47l-.05,0V5.37l.05,0" transform="translate(0 -1.36)"/><path class="cls-9" d="M26.21,5.37V7.5l0,0V5.41a.08.08,0,0,1,0,0" transform="translate(0 -1.36)"/><path class="cls-10" d="M26.17,5.41V7.53l0,0V5.43l0,0" transform="translate(0 -1.36)"/></g></g></g><polygon class="cls-11" points="26.14 4.07 26.14 6.2 21.73 12.92 21.73 10.79 26.14 4.07"/><polygon class="cls-12" points="31.28 10.87 31.28 12.99 26.55 6.2 26.55 4.07 31.28 10.87"/><g class="cls-2"><g class="cls-13"><g class="cls-2"><path class="cls-10" d="M21.73,12.15v2.13a.19.19,0,0,0,0,.11V12.27a.19.19,0,0,1,0-.12" transform="translate(0 -1.36)"/></g></g></g><g class="cls-2"><g class="cls-14"><g class="cls-2"><path class="cls-7" d="M31.32,12.32v2.13a.17.17,0,0,0,0-.1V12.23a.14.14,0,0,1,0,.09" transform="translate(0 -1.36)"/></g></g></g><rect class="cls-3" x="21.93" y="11.13" width="9.19" height="2.13"/><g class="cls-2"><g class="cls-15"><g class="cls-2"><path class="cls-5" d="M31.32,12.32v2.13a.21.21,0,0,1,0,.1V12.42a.18.18,0,0,0,0-.1" transform="translate(0 -1.36)"/><path class="cls-16" d="M31.28,12.42v2.13l0,0V12.45l0,0" transform="translate(0 -1.36)"/><path class="cls-17" d="M31.24,12.45v2.13l0,0V12.47l0,0" transform="translate(0 -1.36)"/><path class="cls-3" d="M31.2,12.47V14.6h-.08V12.49l.08,0" transform="translate(0 -1.36)"/></g></g></g><g class="cls-2"><g class="cls-18"><g class="cls-2"><path class="cls-3" d="M21.94,12.49v2.12a.23.23,0,0,1-.25-.22V12.27a.24.24,0,0,0,.25.22" transform="translate(0 -1.36)"/></g></g></g><rect class="cls-3" x="35.19" y="16.54" width="15.1" height="2.13"/><rect class="cls-3" x="2.71" y="16.54" width="14" height="2.13"/><polygon class="cls-5" points="19.01 14.43 19.01 16.56 16.71 18.67 16.71 16.54 19.01 14.43"/><polygon class="cls-4" points="35.19 16.54 35.19 18.67 33.99 16.48 33.99 14.35 35.19 16.54"/><polygon class="cls-5" points="2.71 16.54 2.71 18.67 1.01 20.24 1.01 18.11 2.71 16.54"/><polygon class="cls-4" points="51.99 18.11 51.99 20.24 50.29 18.67 50.29 16.54 51.99 18.11"/><g class="cls-2"><g class="cls-19"><g class="cls-2"><path class="cls-7" d="M12,20.55v2.12a.17.17,0,0,0-.18-.17h-.06V20.38h.06a.17.17,0,0,1,.18.18" transform="translate(0 -1.36)"/><path class="cls-8" d="M11.76,20.38v2.13a.05.05,0,0,0,0,0V20.4l0,0" transform="translate(0 -1.36)"/></g></g></g><g class="cls-2"><g class="cls-20"><g class="cls-2"><path class="cls-7" d="M41.54,20.41v2.12a.31.31,0,0,0-.13,0l-.08,0V20.39l.08,0a.22.22,0,0,1,.13,0" transform="translate(0 -1.36)"/><path class="cls-8" d="M41.33,20.39v2.13a.09.09,0,0,0-.06,0V20.42l.06,0" transform="translate(0 -1.36)"/><path class="cls-9" d="M41.27,20.42v2.13l-.05,0V20.46l.05,0" transform="translate(0 -1.36)"/><path class="cls-10" d="M41.22,20.46v2.13a.22.22,0,0,0,0,.14V20.6a.24.24,0,0,1,0-.14" transform="translate(0 -1.36)"/></g></g></g><polygon class="cls-12" points="48.84 23.11 48.84 25.24 41.53 21.17 41.53 19.05 48.84 23.11"/><g class="cls-2"><g class="cls-21"><g class="cls-2"><path class="cls-7" d="M49,24.66v2.12a.21.21,0,0,0-.11-.18V24.47a.21.21,0,0,1,.11.19" transform="translate(0 -1.36)"/></g></g></g><polygon class="cls-22" points="11.72 19.04 11.72 21.17 4.32 25.52 4.32 23.39 11.72 19.04"/><g class="cls-2"><g class="cls-23"><g class="cls-2"><path class="cls-7" d="M31.5,24.8v2.12a4.81,4.81,0,0,0-5-4.59,5.27,5.27,0,0,0-1.8.31V20.51a5.27,5.27,0,0,1,1.8-.31,4.81,4.81,0,0,1,5,4.6" transform="translate(0 -1.36)"/><path class="cls-8" d="M24.71,20.51v2.13a4.94,4.94,0,0,0-1.15.57V21.09a5,5,0,0,1,1.15-.58" transform="translate(0 -1.36)"/><path class="cls-9" d="M23.56,21.09v2.12a5,5,0,0,0-1,.85V21.94a4.39,4.39,0,0,1,1-.85" transform="translate(0 -1.36)"/><path class="cls-10" d="M22.59,21.94v2.12a4.37,4.37,0,0,0-1.09,2.86V24.8a4.33,4.33,0,0,1,1.09-2.86" transform="translate(0 -1.36)"/></g></g></g><g class="cls-2"><g class="cls-24"><g class="cls-2"><path class="cls-10" d="M22.59,21.94v2.12a4.37,4.37,0,0,0-1.09,2.86V24.8a4.33,4.33,0,0,1,1.09-2.86" transform="translate(0 -1.36)"/></g></g></g><g class="cls-2"><g class="cls-25"><g class="cls-2"><path class="cls-7" d="M31.5,24.8v2.12a4.81,4.81,0,0,0-5-4.59,5.27,5.27,0,0,0-1.8.31V20.51a5.27,5.27,0,0,1,1.8-.31,4.81,4.81,0,0,1,5,4.6" transform="translate(0 -1.36)"/></g></g></g><g class="cls-2"><g class="cls-26"><g class="cls-2"><path class="cls-5" d="M49,24.66v2.12a.24.24,0,0,1-.05.14V24.8a.24.24,0,0,0,.05-.14" transform="translate(0 -1.36)"/><path class="cls-16" d="M48.91,24.8v2.12l0,0V24.84l0,0" transform="translate(0 -1.36)"/><path class="cls-17" d="M48.86,24.84V27h0V24.84h0" transform="translate(0 -1.36)"/></g></g></g><g class="cls-2"><g class="cls-27"><g class="cls-2"><path class="cls-8" d="M4.32,24.75v2.13h0V24.76h0" transform="translate(0 -1.36)"/><path class="cls-9" d="M4.31,24.76v2.13a.08.08,0,0,0,0,0V24.8s0,0,0,0" transform="translate(0 -1.36)"/><path class="cls-10" d="M4.27,24.8v2.13a.17.17,0,0,0,0,.13V24.93a.18.18,0,0,1,0-.13" transform="translate(0 -1.36)"/></g></g></g><g class="cls-2"><g class="cls-28"><g class="cls-2"><path class="cls-3" d="M4.33,25.12v2.13a.2.2,0,0,1-.11-.19V24.93a.2.2,0,0,0,.11.19" transform="translate(0 -1.36)"/></g></g></g><polygon class="cls-4" points="11.64 27.83 11.64 29.96 4.33 25.89 4.33 23.76 11.64 27.83"/><polygon class="cls-16" points="48.84 23.48 48.84 25.61 41.45 29.97 41.45 27.84 48.84 23.48"/><g class="cls-2"><g class="cls-29"><g class="cls-2"><path class="cls-17" d="M41.45,29.2v2.13h0V29.21h0" transform="translate(0 -1.36)"/><path class="cls-3" d="M41.42,29.21v2.13h-.06a.18.18,0,0,1-.19-.18V29a.18.18,0,0,0,.19.18h.06" transform="translate(0 -1.36)"/></g></g></g><path class="cls-30" d="M11.82,20.37a.17.17,0,0,1,.18.18V29a.23.23,0,0,1-.24.22.27.27,0,0,1-.12,0L4.33,25.12a.21.21,0,0,1,0-.37l7.4-4.35A.19.19,0,0,1,11.82,20.37Z" transform="translate(0 -1.36)"/><g class="cls-2"><g class="cls-31"><g class="cls-2"><path class="cls-5" d="M12,29v2.12a.25.25,0,0,1-.05.15V29.14A.24.24,0,0,0,12,29" transform="translate(0 -1.36)"/><path class="cls-16" d="M12,29.14v2.13l0,0V29.18l0,0" transform="translate(0 -1.36)"/><path class="cls-17" d="M11.9,29.18v2.13l-.06,0V29.21l.06,0" transform="translate(0 -1.36)"/><path class="cls-3" d="M11.84,29.21v2.13h-.08a.27.27,0,0,1-.12,0V29.19a.27.27,0,0,0,.12,0h.08" transform="translate(0 -1.36)"/></g></g></g><path class="cls-30" d="M26.51,20.2a4.81,4.81,0,0,1,5,4.6,4.81,4.81,0,0,1-5,4.6,4.82,4.82,0,0,1-5-4.6A4.82,4.82,0,0,1,26.51,20.2Z" transform="translate(0 -1.36)"/><g class="cls-2"><g class="cls-32"><g class="cls-2"><path class="cls-5" d="M31.5,24.8v2.12a4.35,4.35,0,0,1-1.09,2.87V27.67A4.39,4.39,0,0,0,31.5,24.8" transform="translate(0 -1.36)"/><path class="cls-16" d="M30.41,27.67v2.12a4.87,4.87,0,0,1-1,.85V28.51a4.83,4.83,0,0,0,1-.84" transform="translate(0 -1.36)"/><path class="cls-17" d="M29.45,28.51v2.13a5.17,5.17,0,0,1-1.15.58V29.09a5.17,5.17,0,0,0,1.15-.58" transform="translate(0 -1.36)"/><path class="cls-3" d="M28.3,29.09v2.13a5.3,5.3,0,0,1-1.79.3,4.81,4.81,0,0,1-5-4.6V24.8a4.82,4.82,0,0,0,5,4.6,5.3,5.3,0,0,0,1.79-.31" transform="translate(0 -1.36)"/></g></g></g><rect class="cls-33" x="36.29" y="30.33" width="14" height="2.13"/><rect class="cls-33" x="2.71" y="30.33" width="14" height="2.13"/><polygon class="cls-34" points="51.99 28.77 51.99 30.9 50.29 32.46 50.29 30.34 51.99 28.77"/><polygon class="cls-12" points="2.71 30.34 2.71 32.46 1.01 30.9 1.01 28.77 2.71 30.34"/><polygon class="cls-12" points="19.01 32.44 19.01 34.57 16.71 32.46 16.71 30.34 19.01 32.44"/><polygon class="cls-34" points="36.29 30.34 36.29 32.46 33.99 34.57 33.99 32.44 36.29 30.34"/><rect class="cls-33" x="21.88" y="36.11" width="9.19" height="2.13"/><g class="cls-2"><g class="cls-35"><g class="cls-2"><path class="cls-7" d="M31.31,37.69v2.13a.23.23,0,0,0-.24-.22V37.47a.23.23,0,0,1,.24.22" transform="translate(0 -1.36)"/></g></g></g><g class="cls-2"><g class="cls-36"><g class="cls-2"><path class="cls-7" d="M21.88,37.47V39.6h-.07V37.48h.07" transform="translate(0 -1.36)"/><path class="cls-8" d="M21.81,37.48v2.13l0,0V37.5l0,0" transform="translate(0 -1.36)"/><path class="cls-9" d="M21.76,37.5v2.13l0,0V37.54l0,0" transform="translate(0 -1.36)"/><path class="cls-10" d="M21.73,37.54v2.12a.15.15,0,0,0,0,.11V37.64a.13.13,0,0,1,0-.1" transform="translate(0 -1.36)"/></g></g></g><g class="cls-2"><g class="cls-37"><g class="cls-2"><path class="cls-7" d="M31.31,37.69v2.13a.23.23,0,0,0-.24-.22V37.47a.23.23,0,0,1,.24.22" transform="translate(0 -1.36)"/></g></g></g><g class="cls-2"><g class="cls-38"><g class="cls-2"><path class="cls-3" d="M21.72,37.73v2.13a.16.16,0,0,1,0-.09V37.64a.16.16,0,0,0,0,.09" transform="translate(0 -1.36)"/></g></g></g><g class="cls-2"><g class="cls-39"><g class="cls-2"><path class="cls-5" d="M31.31,37.69v2.13a.2.2,0,0,1,0,.11V37.81a.27.27,0,0,0,0-.12" transform="translate(0 -1.36)"/></g></g></g><polygon class="cls-4" points="26.45 43.17 26.45 45.29 21.72 38.5 21.72 36.37 26.45 43.17"/><polygon class="cls-40" points="31.27 36.45 31.27 38.57 26.86 45.29 26.86 43.17 31.27 36.45"/><g class="cls-2"><g class="cls-41"><g class="cls-2"><path class="cls-5" d="M26.86,44.53v2.12l0,0V44.55l0,0" transform="translate(0 -1.36)"/><path class="cls-16" d="M26.84,44.55v2.13l0,0V44.59l0,0" transform="translate(0 -1.36)"/><path class="cls-17" d="M26.8,44.59v2.13l-.06,0V44.62l.06,0" transform="translate(0 -1.36)"/><path class="cls-3" d="M26.74,44.62v2.12l-.08,0a.26.26,0,0,1-.21-.11V44.53a.25.25,0,0,0,.21.1h.08" transform="translate(0 -1.36)"/></g></g></g><path class="cls-30" d="M31.07,37.47a.22.22,0,0,1,.21.34l-4.42,6.72a.23.23,0,0,1-.2.1.25.25,0,0,1-.21-.1l-4.73-6.8a.17.17,0,0,1,.16-.26Z" transform="translate(0 -1.36)"/><polygon class="cls-12" points="20.71 45.96 20.71 48.09 19.01 46.52 19.01 44.4 20.71 45.96"/><rect class="cls-33" x="20.71" y="45.96" width="11.58" height="2.13"/><polygon class="cls-34" points="33.99 44.4 33.99 46.52 32.29 48.09 32.29 45.96 33.99 44.4"/><path class="cls-30" d="M50.72,17,53,19.09V30.5l-2.28,2.11h-14L35,34.18V46.12l-2.28,2.12H20.29L18,46.12V34.18l-1.71-1.57h-14L0,30.5V19.09L2.29,17h14L18,15.41v-12l2.83-2.07H32.72L35,3.46v12L35.81,17ZM52,30.13V19.47L50.29,17.9H35.19L34,15.71V3.84L32.29,2.27H21.18L19,3.87V15.79L16.72,17.9h-14L1,19.47V30.13l1.7,1.57h14L19,33.8v12l1.7,1.56H32.29L34,45.76v-12l2.29-2.1h14L52,30.13" transform="translate(0 -1.36)"/><path class="cls-30" d="M26.35,5.33a.25.25,0,0,1,.2.1l4.74,6.8c.08.11,0,.26-.17.26H21.94a.22.22,0,0,1-.21-.34l4.42-6.72A.22.22,0,0,1,26.35,5.33Z" transform="translate(0 -1.36)"/><path class="cls-30" d="M41.41,20.37a.22.22,0,0,1,.13,0l7.31,4.06a.21.21,0,0,1,0,.37l-7.4,4.36a.15.15,0,0,1-.09,0,.18.18,0,0,1-.19-.18V20.6A.24.24,0,0,1,41.41,20.37Z" transform="translate(0 -1.36)"/><polygon class="cls-5" points="53 29.14 53 31.26 50.72 33.38 50.72 31.25 53 29.14"/><rect class="cls-3" x="2.29" y="31.25" width="14" height="2.13"/><rect class="cls-3" x="36.71" y="31.25" width="14" height="2.13"/><polygon class="cls-4" points="2.29 31.25 2.29 33.38 0 31.26 0 29.14 2.29 31.25"/><polygon class="cls-4" points="18 32.81 18 34.94 16.29 33.38 16.29 31.25 18 32.81"/><polygon class="cls-5" points="36.71 31.25 36.71 33.38 35 34.94 35 32.81 36.71 31.25"/><path class="cls-42" d="M50.29,17.9,52,19.47V30.13L50.29,31.7h-14L34,33.8v12l-1.71,1.56H20.71L19,45.76v-12l-2.29-2.1h-14L1,30.13V19.47l1.7-1.57h14L19,15.79V3.87l2.17-1.6H32.29L34,3.84V15.71l1.19,2.19ZM26.51,29.4a4.81,4.81,0,0,0,5-4.6,4.81,4.81,0,0,0-5-4.6,4.82,4.82,0,0,0-5,4.6,4.82,4.82,0,0,0,5,4.6m4.77,8.4a.22.22,0,0,0-.21-.33H21.88a.17.17,0,0,0-.16.26l4.73,6.8a.25.25,0,0,0,.21.1.23.23,0,0,0,.2-.1l4.42-6.73M21.73,12.15a.22.22,0,0,0,.21.34h9.18c.16,0,.25-.15.17-.26l-4.74-6.8a.25.25,0,0,0-.2-.1.22.22,0,0,0-.2.1l-4.42,6.72M48.85,24.84a.21.21,0,0,0,0-.37l-7.31-4.06a.22.22,0,0,0-.13,0,.24.24,0,0,0-.24.23V29a.18.18,0,0,0,.19.18.15.15,0,0,0,.09,0l7.4-4.36M12,29V20.55a.17.17,0,0,0-.18-.18.19.19,0,0,0-.1,0l-7.4,4.35a.21.21,0,0,0,0,.37l7.31,4.07a.27.27,0,0,0,.12,0A.23.23,0,0,0,12,29" transform="translate(0 -1.36)"/><polygon class="cls-5" points="35 44.76 35 46.89 32.72 49.01 32.72 46.88 35 44.76"/><rect class="cls-3" x="20.29" y="46.88" width="12.43" height="2.13"/><polygon class="cls-4" points="20.29 46.88 20.29 49.01 18 46.89 18 44.76 20.29 46.88"/></g></g></g></svg>