<svg xmlns="http://www.w3.org/2000/svg" viewBox="0 0 243.11 409.92"><defs><style>.cls-1{fill:#f2f2f2;stroke:#999;}.cls-1,.cls-10,.cls-11,.cls-2,.cls-3,.cls-5,.cls-6,.cls-7,.cls-8{stroke-miterlimit:10;}.cls-2{fill:#2f342e;stroke:#25221d;}.cls-3{fill:#b8c0ab;stroke:#4c4f48;stroke-width:2px;}.cls-4{fill:#ccc;}.cls-5{fill:#80b8eb;stroke:#0071bc;stroke-width:1.26px;}.cls-6{fill:#5ecc76;stroke:#009245;stroke-width:1.26px;}.cls-7{fill:#fffeff;stroke:gray;}.cls-7,.cls-8{stroke-width:1.26px;}.cls-8{fill:#fc6d33;stroke:#bd5226;}.cls-10,.cls-11,.cls-9{fill:#333;}.cls-10,.cls-11{stroke:#333;}.cls-10{stroke-width:1.5px;}</style></defs><g id="Layer_2" data-name="Layer 2"><g id="Layer_2-2" data-name="Layer 2"><g id="Grainboi"><g id="GBoy"><path class="cls-1" d="M.5,29.5l3,351s-3,19,28,23c67.7,8.74,114,7,182,0,0,0,22,0,26-17s3-358,3-358,3-28-27-28H26.5S.5.5.5,29.5Z"/><path class="cls-2" d="M16.06,28.29l9-8h194l8,8v179s1,9-15,9h-182c-17,0-14-9-14-19Z"/><polygon class="cls-3" points="218.06 172.87 215.06 176.29 28.06 176.29 25.06 171.73 25.06 44.15 29.06 39.59 214.06 39.59 218.06 44.15 218.06 172.87"/><path class="cls-4" d="M33.58,35.24H32.09a4.14,4.14,0,0,1,.09-.73,1.89,1.89,0,0,1-1.66.88c-1.59,0-1.83-1.27-1.48-2.94l1-4.71C30.41,26,31,24.79,33,24.81c2.36,0,2.44,1.68,2.2,2.83L35.1,28h-2l.11-.56c.1-.6.07-1-.42-1s-.56.18-.75,1.07L31,32.67c-.16.75-.08,1.13.38,1.13s.69-.38.89-1.35l.28-1.38h-.68l.36-1.64h2.62Z"/><path class="cls-4" d="M37.65,30.8l-.95,4.44H34.77L37,25h2.36c1.71,0,2.47.9,2.11,2.68l-.13.58c-.25,1.25-.78,1.68-1.37,1.86.44.3.74.78.38,2.37a24.92,24.92,0,0,0-.51,2.79H37.88a21.51,21.51,0,0,1,.55-3.17c.22-1,.12-1.27-.51-1.27ZM38,29.27h.27c.7,0,.93-.21,1.11-1.13l.12-.63c.13-.69.05-1-.6-1h-.31Z"/><path class="cls-4" d="M43.29,32.73l-.77,2.51H40.47L44,25h3l-.77,10.28h-2l.22-2.51ZM44.71,31c.13-1.22.33-3.38.42-4.34h-.08c-.2.78-.83,3-1.23,4.34Z"/><path class="cls-4" d="M51.14,25,49,35.24H47L49.2,25Z"/><path class="cls-4" d="M50.19,35.24,52.37,25h2.22c0,3.09-.06,6.49-.08,6.94h.05c.2-1.43.55-3.82.85-5.25L55.77,25H57.6L55.41,35.24h-2.2c0-2.71,0-6.67.07-7h-.05c-.19,1.2-.54,3.63-.88,5.24L52,35.24Z"/><path class="cls-4" d="M58.82,25H61.2c1.65,0,2.35.87,2,2.61l-.1.5a2,2,0,0,1-1.39,1.78c.67.32,1,1,.78,2.09l-.15.74c-.36,1.82-1,2.56-3,2.56H56.64Zm0,8.76h.48c.69,0,.86-.33,1-1.14l.2-1c.13-.71.07-1.05-.72-1.05h-.31ZM60.28,29c.57,0,.77-.21.94-1l.12-.59c.11-.62,0-.94-.67-.94h-.28L59.86,29Z"/><path class="cls-4" d="M69.4,27.87l-1,4.74c-.4,1.89-1.1,2.78-3,2.78s-2.54-1.1-2.15-3l1-5c.39-1.87,1.38-2.56,2.86-2.56C69,24.81,69.83,25.88,69.4,27.87Zm-3.13-.52-1.13,5.41c-.12.55-.09,1,.46,1s.66-.39.79-1l1.14-5.41c.12-.6,0-1-.5-1S66.41,26.69,66.27,27.35Z"/><path class="cls-4" d="M73.09,25,70.91,35.24H69L71.15,25Z"/></g><circle class="cls-5" cx="48.12" cy="196.81" r="15"/><circle class="cls-6" cx="97.59" cy="196.81" r="15"/><circle class="cls-7" cx="145" cy="196.81" r="15"/><circle class="cls-8" cx="192.41" cy="196.81" r="15"/><circle class="cls-9" cx="209.87" cy="270.69" r="12.28"/><circle class="cls-9" cx="173.13" cy="294.01" r="12.28"/><rect class="cls-10" x="131.06" y="347.72" width="27.89" height="12.3" rx="6.15"/><circle class="cls-9" cx="214.71" cy="379.76" r="15.09"/><polygon class="cls-11" points="45.34 259.72 56.84 259.72 58.84 261.72 58.84 266.72 58.84 274.72 59.84 276.72 73.84 276.72 74.84 276.72 76.84 278.72 76.84 290.72 74.84 292.72 60.84 292.72 58.84 294.72 58.84 307.72 56.84 309.72 44.84 309.72 42.84 307.72 42.84 294.72 40.84 292.72 26.84 292.72 24.84 290.72 24.84 278.72 26.84 276.72 40.84 276.72 42.84 274.72 42.84 261.72 45.34 259.72"/><rect class="cls-10" x="82.62" y="347.72" width="27.89" height="12.3" rx="6.15"/></g></g></g></svg>