<svg xmlns="http://www.w3.org/2000/svg" xmlns:xlink="http://www.w3.org/1999/xlink" viewBox="0 0 27.73 13.11"><defs><style>.cls-1{fill:none;}.cls-2{isolation:isolate;}.cls-3{fill:#1a1a1a;}.cls-4{clip-path:url(#clip-path);}.cls-5{fill:#1b1b1b;}.cls-6{clip-path:url(#clip-path-2);}.cls-7{fill:#1c1c1c;}.cls-8{fill:#1d1d1d;}.cls-9{fill:#1e1e1e;}.cls-10{clip-path:url(#clip-path-3);}.cls-11{fill:#232421;}.cls-12{fill:#3c3d38;}.cls-13{fill:#222320;}.cls-14{clip-path:url(#clip-path-4);}.cls-15{fill:#272825;}.cls-16{fill:#262723;}.cls-17{fill:#252522;}.cls-18{fill:#2d2d2d;}.cls-19{clip-path:url(#clip-path-5);}.cls-20{clip-path:url(#clip-path-6);}</style><clipPath id="clip-path" transform="translate(0)"><path class="cls-1" d="M27,6.34v.43a5.63,5.63,0,0,0-5.63-5.61V.73A5.63,5.63,0,0,1,27,6.34Z"/></clipPath><clipPath id="clip-path-2" transform="translate(0)"><path class="cls-1" d="M6.36.73v.43A5.63,5.63,0,0,0,.73,6.77V6.34A5.63,5.63,0,0,1,6.36.73Z"/></clipPath><clipPath id="clip-path-3" transform="translate(0)"><path class="cls-1" d="M6.36,12v.44A5.63,5.63,0,0,1,.73,6.77V6.34A5.63,5.63,0,0,0,6.36,12Z"/></clipPath><clipPath id="clip-path-4" transform="translate(0)"><path class="cls-1" d="M21.37,12.39V12A5.63,5.63,0,0,0,27,6.34v.43A5.63,5.63,0,0,1,21.37,12.39Z"/></clipPath><clipPath id="clip-path-5" transform="translate(0)"><path class="cls-1" d="M27.73,6.34v.43a6.35,6.35,0,0,1-6.36,6.34v-.43A6.35,6.35,0,0,0,27.73,6.34Z"/></clipPath><clipPath id="clip-path-6" transform="translate(0)"><path class="cls-1" d="M6.36,12.68v.43A6.35,6.35,0,0,1,0,6.77V6.34A6.35,6.35,0,0,0,6.36,12.68Z"/></clipPath></defs><g id="Layer_2" data-name="Layer 2"><g id="Layer_2-2" data-name="Layer 2"><g class="cls-2"><rect class="cls-3" x="6.36" y="0.73" width="15" height="0.44"/><g class="cls-2"><g class="cls-4"><g class="cls-2"><path class="cls-5" d="M27,6.34v.43a5.63,5.63,0,0,0-5.63-5.61V.73A5.63,5.63,0,0,1,27,6.34" transform="translate(0)"/></g></g></g><g class="cls-2"><g class="cls-6"><g class="cls-2"><path class="cls-5" d="M6.36.73v.43a5.65,5.65,0,0,0-4.8,2.68V3.4A5.66,5.66,0,0,1,6.36.73" transform="translate(0)"/><path class="cls-7" d="M1.56,3.4v.44a5.45,5.45,0,0,0-.5,1V4.44a5.53,5.53,0,0,1,.5-1" transform="translate(0)"/><path class="cls-8" d="M1.06,4.44v.43a6.54,6.54,0,0,0-.26,1V5.43a6.54,6.54,0,0,1,.26-1" transform="translate(0)"/><path class="cls-9" d="M.8,5.43v.43a5.49,5.49,0,0,0-.07.91V6.34A5.41,5.41,0,0,1,.8,5.43" transform="translate(0)"/></g></g></g><g class="cls-2"><g class="cls-10"><g class="cls-2"><path class="cls-11" d="M6.36,12v.44A5.63,5.63,0,0,1,.73,6.77V6.34A5.63,5.63,0,0,0,6.36,12" transform="translate(0)"/></g></g></g><path class="cls-12" d="M21.37.73a5.61,5.61,0,1,1,0,11.22h-15A5.61,5.61,0,1,1,6.36.73Z" transform="translate(0)"/><rect class="cls-13" x="6.36" y="11.95" width="15" height="0.44"/><g class="cls-2"><g class="cls-14"><g class="cls-2"><path class="cls-15" d="M27,6.34v.43a6.86,6.86,0,0,1-.07.92V7.25A6.84,6.84,0,0,0,27,6.34" transform="translate(0)"/><path class="cls-16" d="M26.93,7.25v.44a6.13,6.13,0,0,1-.26,1V8.24a6.54,6.54,0,0,0,.26-1" transform="translate(0)"/><path class="cls-17" d="M26.67,8.24v.43a4.78,4.78,0,0,1-.51,1V9.28a5.28,5.28,0,0,0,.51-1" transform="translate(0)"/><path class="cls-11" d="M26.16,9.28v.43a5.62,5.62,0,0,1-4.79,2.68V12a5.63,5.63,0,0,0,4.79-2.67" transform="translate(0)"/></g></g></g><rect class="cls-3" x="6.36" y="12.68" width="15" height="0.44"/><path class="cls-18" d="M21.37,0a6.34,6.34,0,1,1,0,12.68h-15A6.34,6.34,0,1,1,6.36,0Zm0,12a5.61,5.61,0,1,0,0-11.22h-15A5.61,5.61,0,1,0,6.36,12h15" transform="translate(0)"/><g class="cls-2"><g class="cls-19"><g class="cls-2"><path class="cls-9" d="M27.73,6.34v.43a5.92,5.92,0,0,1-.09,1V7.37a5.8,5.8,0,0,0,.09-1" transform="translate(0)"/><path class="cls-8" d="M27.64,7.37v.44a5.84,5.84,0,0,1-.29,1.11V8.49a5.94,5.94,0,0,0,.29-1.12" transform="translate(0)"/><path class="cls-7" d="M27.35,8.49v.43a6.63,6.63,0,0,1-.56,1.17V9.66a7,7,0,0,0,.56-1.17" transform="translate(0)"/><path class="cls-5" d="M26.79,9.66v.43a6.39,6.39,0,0,1-5.42,3v-.43a6.39,6.39,0,0,0,5.42-3" transform="translate(0)"/></g></g></g><g class="cls-2"><g class="cls-20"><g class="cls-2"><path class="cls-5" d="M6.36,12.68v.43A6.35,6.35,0,0,1,0,6.77V6.34a6.35,6.35,0,0,0,6.36,6.34" transform="translate(0)"/></g></g></g></g></g></g></svg>