<svg xmlns="http://www.w3.org/2000/svg" viewBox="0 0 24 25.02"><defs><style>.cls-1{isolation:isolate;}.cls-2{fill:#e8474f;}.cls-3{fill:#c1272d;}</style></defs><g id="Layer_2" data-name="Layer 2"><g id="Layer_2-2" data-name="Layer 2"><g class="cls-1"><rect class="cls-2" x="11.38" y="6.97" width="1.3" height="1.05"/><rect class="cls-3" x="11.99" y="7.93" width="0.03" height="1.05"/><path class="cls-3" d="M12,7.93V9c-.13.5-.26,1-.43,1.51v-1C11.73,8.93,11.86,8.42,12,7.93Z"/><path class="cls-3" d="M12.45,9.45v1A13.71,13.71,0,0,1,12,9v-1A14.34,14.34,0,0,0,12.45,9.45Z"/><polygon class="cls-3" points="11.56 9.44 11.56 10.48 10.75 12.9 10.75 11.86 11.56 9.44"/><polygon class="cls-3" points="13.27 11.86 13.27 12.9 12.45 10.49 12.45 9.45 13.27 11.86"/><rect class="cls-2" x="10.75" y="11.85" width="2.52" height="1.05"/><path class="cls-2" d="M12,7.93a14.34,14.34,0,0,0,.43,1.52l.82,2.4H10.75l.81-2.41c.17-.51.3-1,.43-1.51Z"/><path class="cls-3" d="M23,12v1A11,11,0,0,0,1,13V12a11,11,0,0,1,22,0Z"/><path class="cls-2" d="M1,12v0Z"/><rect class="cls-3" x="10.52" y="12.7" width="2.97" height="1.05"/><polygon class="cls-2" points="15.53 15.32 15.53 16.37 12.68 8.01 12.68 6.96 15.53 15.32"/><rect class="cls-3" x="14.38" y="15.32" width="1.15" height="1.05"/><polygon class="cls-3" points="14.38 15.32 14.38 16.37 13.49 13.75 13.49 12.7 14.38 15.32"/><polygon class="cls-2" points="11.38 6.96 11.38 8.01 8.53 16.37 8.53 15.32 11.38 6.96"/><polygon class="cls-3" points="10.52 12.7 10.52 13.75 9.65 16.37 9.65 15.32 10.52 12.7"/><rect class="cls-3" x="8.53" y="15.32" width="1.12" height="1.05"/><path class="cls-2" d="M1,13V12a11,11,0,0,0,22,0v1A11,11,0,0,1,1,13Z"/><path class="cls-2" d="M12,1A11,11,0,1,1,1,12,11,11,0,0,1,12,1Zm2.38,14.31h1.15L12.68,7h-1.3L8.53,15.32H9.65l.87-2.62h3l.89,2.62"/><path class="cls-3" d="M12.68,7l2.85,8.35H14.38l-.89-2.62h-3l-.87,2.62H8.53L11.38,7Zm-1.93,4.88h2.52l-.82-2.4A14.34,14.34,0,0,1,12,7.93h0c-.13.49-.26,1-.43,1.51l-.81,2.41"/><path class="cls-3" d="M12,0A12,12,0,1,1,0,12,12,12,0,0,1,12,0Zm0,23A11,11,0,1,0,1,12,11,11,0,0,0,12,23"/><path class="cls-3" d="M24,12v1A12,12,0,0,1,0,13V12a12,12,0,0,0,24,0Z"/></g></g></g></svg>