<svg xmlns="http://www.w3.org/2000/svg" viewBox="0 0 24 25.02"><defs><style>.cls-1{isolation:isolate;}.cls-2{fill:#e8474f;}.cls-3{fill:#c1272d;}</style></defs><g id="Layer_2" data-name="Layer 2"><g id="Layer_2-2" data-name="Layer 2"><g class="cls-1"><path class="cls-2" d="M13.82,8.24v1a3.48,3.48,0,0,0-2.3-.6,10.37,10.37,0,0,0-2,.17v-1a10.37,10.37,0,0,1,2-.17A3.54,3.54,0,0,1,13.82,8.24Z"/><path class="cls-2" d="M14.52,9.72v1a1.74,1.74,0,0,0-.7-1.48v-1A1.76,1.76,0,0,1,14.52,9.72Z"/><path class="cls-3" d="M13.43,9.83v1.05c0-1-.75-1.37-1.85-1.37a5.32,5.32,0,0,0-.95.07v-1a4.49,4.49,0,0,1,.95-.07C12.68,8.47,13.43,8.85,13.43,9.83Z"/><path class="cls-2" d="M13.43,10.88c0,.81-.68,1.4-1.82,1.4v-1c1.14,0,1.82-.59,1.82-1.4Z"/><rect class="cls-2" x="10.63" y="11.23" width="0.98" height="1.05"/><path class="cls-3" d="M14.52,9.72v1A2,2,0,0,1,13.1,12.6v-1A2,2,0,0,0,14.52,9.72Z"/><path class="cls-3" d="M23,12v1A11,11,0,0,0,1,13V12a11,11,0,0,1,22,0Z"/><rect class="cls-3" x="10.63" y="12.05" width="0.89" height="1.05"/><path class="cls-2" d="M14.82,13.68v1.05a2.14,2.14,0,0,0-1.72-2.1V11.58A2.15,2.15,0,0,1,14.82,13.68Z"/><path class="cls-3" d="M13.69,13.66v1.05c0-1.14-1-1.61-2.17-1.61v-1C12.7,12.05,13.69,12.53,13.69,13.66Z"/><path class="cls-2" d="M11.54,16.33a7.15,7.15,0,0,1-.91,0v-1a5.45,5.45,0,0,0,.91,0c1.11,0,2.15-.41,2.15-1.63v1.05C13.69,15.93,12.65,16.33,11.54,16.33Z"/><path class="cls-3" d="M14.82,13.68v1.05a2.26,2.26,0,0,1-.7,1.67v-1A2.23,2.23,0,0,0,14.82,13.68Z"/><path class="cls-3" d="M14.12,15.35v1a4.18,4.18,0,0,1-2.9.78,12.62,12.62,0,0,1-1.67-.1V16a11.09,11.09,0,0,0,1.67.1A4.18,4.18,0,0,0,14.12,15.35Z"/><path class="cls-2" d="M12,24A11,11,0,0,1,1,13V12a11,11,0,0,0,22,0v1A11,11,0,0,1,12,24Z"/><path class="cls-3" d="M13.1,11.58a2.15,2.15,0,0,1,1.72,2.1,2.23,2.23,0,0,1-.7,1.67,4.18,4.18,0,0,1-2.9.78A11.09,11.09,0,0,1,9.55,16V7.81a10.37,10.37,0,0,1,2-.17,3.54,3.54,0,0,1,2.3.6,1.76,1.76,0,0,1,.7,1.48,2,2,0,0,1-1.42,1.84Zm-1.56,3.71c1.11,0,2.15-.41,2.15-1.63s-1-1.61-2.17-1.61h-.89v3.19a5.45,5.45,0,0,0,.91,0m-.91-6.75v2.69h1c1.14,0,1.82-.59,1.82-1.4,0-1-.75-1.36-1.85-1.36a4.49,4.49,0,0,0-.95.07"/><path class="cls-2" d="M11.52,12.05c1.18,0,2.17.48,2.17,1.61s-1,1.63-2.15,1.63a5.45,5.45,0,0,1-.91,0V12.05Z"/><path class="cls-2" d="M12,1A11,11,0,1,1,1,12,11,11,0,0,1,12,1Zm2.11,14.35a2.23,2.23,0,0,0,.7-1.67,2.15,2.15,0,0,0-1.72-2.1v0a2,2,0,0,0,1.42-1.84,1.76,1.76,0,0,0-.7-1.48,3.54,3.54,0,0,0-2.3-.6,10.37,10.37,0,0,0-2,.17V16a11.09,11.09,0,0,0,1.67.1,4.18,4.18,0,0,0,2.9-.78"/><path class="cls-3" d="M12,0A12,12,0,1,0,24,12,12,12,0,0,0,12,0Zm0,23A11,11,0,1,1,23,12,11,11,0,0,1,12,23"/><path class="cls-2" d="M11.58,8.47a4.49,4.49,0,0,0-.95.07v2.69h1c1.14,0,1.82-.59,1.82-1.4C13.43,8.85,12.68,8.47,11.58,8.47Z"/><path class="cls-3" d="M24,12v1A12,12,0,0,1,0,13V12a12,12,0,0,0,24,0Z"/></g></g></g></svg>